<?xml version="1.0" encoding="utf-8" standalone="no"?>
<!DOCTYPE svg PUBLIC "-//W3C//DTD SVG 1.1//EN"
  "http://www.w3.org/Graphics/SVG/1.1/DTD/svg11.dtd">
<!-- Created with matplotlib (http://matplotlib.org/) -->
<svg height="345pt" version="1.1" viewBox="0 0 460 345" width="460pt" xmlns="http://www.w3.org/2000/svg" xmlns:xlink="http://www.w3.org/1999/xlink">
 <defs>
  <style type="text/css">
*{stroke-linecap:butt;stroke-linejoin:round;}
  </style>
 </defs>
 <g id="figure_1">
  <g id="patch_1">
   <path d="M 0 345.6 
L 460.8 345.6 
L 460.8 0 
L 0 0 
z
" style="fill:#ffffff;"/>
  </g>
  <g id="axes_1">
   <g id="patch_2">
    <path d="M 57.6 307.584 
L 414.72 307.584 
L 414.72 41.472 
L 57.6 41.472 
z
" style="fill:#ffffff;"/>
   </g>
   <g id="PolyCollection_1">
    <path clip-path="url(#p0cba6cbda8)" d="M 73.832727 212.793449 
L 73.832727 307.584 
L 83.38139 307.584 
L 92.930053 307.584 
L 102.478717 307.584 
L 112.02738 307.584 
L 121.576043 307.584 
L 131.124706 307.584 
L 140.673369 307.584 
L 150.222032 307.584 
L 159.770695 307.584 
L 169.319358 307.584 
L 178.868021 307.584 
L 188.416684 307.584 
L 197.965348 307.584 
L 207.514011 307.584 
L 217.062674 307.584 
L 226.611337 307.584 
L 236.16 307.584 
L 245.708663 307.584 
L 255.257326 307.584 
L 264.805989 307.584 
L 274.354652 307.584 
L 283.903316 307.584 
L 293.451979 307.584 
L 303.000642 307.584 
L 312.549305 307.584 
L 322.097968 307.584 
L 331.646631 307.584 
L 341.195294 307.584 
L 350.743957 307.584 
L 360.29262 307.584 
L 369.841283 307.584 
L 379.389947 307.584 
L 388.93861 307.584 
L 398.487273 307.584 
L 398.487273 307.584 
L 398.487273 307.584 
L 388.93861 307.584 
L 379.389947 307.584 
L 369.841283 307.584 
L 360.29262 307.584 
L 350.743957 307.584 
L 341.195294 307.584 
L 331.646631 275.654551 
L 322.097968 293.614866 
L 312.549305 291.619276 
L 303.000642 297.606047 
L 293.451979 289.623685 
L 283.903316 289.623685 
L 274.354652 290.62148 
L 264.805989 287.628094 
L 255.257326 285.632504 
L 245.708663 292.617071 
L 236.16 288.62589 
L 226.611337 288.62589 
L 217.062674 291.619276 
L 207.514011 297.606047 
L 197.965348 301.597228 
L 188.416684 289.623685 
L 178.868021 289.623685 
L 169.319358 288.62589 
L 159.770695 286.630299 
L 150.222032 289.623685 
L 140.673369 287.628094 
L 131.124706 303.592819 
L 121.576043 286.630299 
L 112.02738 286.630299 
L 102.478717 268.669984 
L 92.930053 278.647937 
L 83.38139 277.650142 
L 73.832727 212.793449 
z
" style="fill:#1f77b4;"/>
   </g>
   <g id="PolyCollection_2">
    <path clip-path="url(#p0cba6cbda8)" d="M 73.832727 207.804472 
L 73.832727 212.793449 
L 83.38139 277.650142 
L 92.930053 278.647937 
L 102.478717 268.669984 
L 112.02738 286.630299 
L 121.576043 286.630299 
L 131.124706 303.592819 
L 140.673369 287.628094 
L 150.222032 289.623685 
L 159.770695 286.630299 
L 169.319358 288.62589 
L 178.868021 289.623685 
L 188.416684 289.623685 
L 197.965348 301.597228 
L 207.514011 297.606047 
L 217.062674 291.619276 
L 226.611337 288.62589 
L 236.16 288.62589 
L 245.708663 292.617071 
L 255.257326 285.632504 
L 264.805989 287.628094 
L 274.354652 290.62148 
L 283.903316 289.623685 
L 293.451979 289.623685 
L 303.000642 297.606047 
L 312.549305 291.619276 
L 322.097968 293.614866 
L 331.646631 275.654551 
L 341.195294 307.584 
L 350.743957 307.584 
L 360.29262 307.584 
L 369.841283 307.584 
L 379.389947 307.584 
L 388.93861 307.584 
L 398.487273 307.584 
L 398.487273 275.654551 
L 398.487273 275.654551 
L 388.93861 296.608252 
L 379.389947 302.595024 
L 369.841283 302.595024 
L 360.29262 306.586205 
L 350.743957 299.601638 
L 341.195294 305.588409 
L 331.646631 269.66778 
L 322.097968 285.632504 
L 312.549305 287.628094 
L 303.000642 277.650142 
L 293.451979 277.650142 
L 283.903316 284.634709 
L 274.354652 274.656756 
L 264.805989 249.711874 
L 255.257326 267.672189 
L 245.708663 291.619276 
L 236.16 279.645732 
L 226.611337 279.645732 
L 217.062674 288.62589 
L 207.514011 290.62148 
L 197.965348 290.62148 
L 188.416684 278.647937 
L 178.868021 275.654551 
L 169.319358 277.650142 
L 159.770695 268.669984 
L 150.222032 279.645732 
L 140.673369 252.70526 
L 131.124706 281.641323 
L 121.576043 260.687622 
L 112.02738 250.709669 
L 102.478717 247.716283 
L 92.930053 250.709669 
L 83.38139 245.720693 
L 73.832727 207.804472 
z
" style="fill:#ff7f0e;"/>
   </g>
   <g id="PolyCollection_3">
    <path clip-path="url(#p0cba6cbda8)" d="M 73.832727 196.828724 
L 73.832727 207.804472 
L 83.38139 245.720693 
L 92.930053 250.709669 
L 102.478717 247.716283 
L 112.02738 250.709669 
L 121.576043 260.687622 
L 131.124706 281.641323 
L 140.673369 252.70526 
L 150.222032 279.645732 
L 159.770695 268.669984 
L 169.319358 277.650142 
L 178.868021 275.654551 
L 188.416684 278.647937 
L 197.965348 290.62148 
L 207.514011 290.62148 
L 217.062674 288.62589 
L 226.611337 279.645732 
L 236.16 279.645732 
L 245.708663 291.619276 
L 255.257326 267.672189 
L 264.805989 249.711874 
L 274.354652 274.656756 
L 283.903316 284.634709 
L 293.451979 277.650142 
L 303.000642 277.650142 
L 312.549305 287.628094 
L 322.097968 285.632504 
L 331.646631 269.66778 
L 341.195294 305.588409 
L 350.743957 299.601638 
L 360.29262 306.586205 
L 369.841283 302.595024 
L 379.389947 302.595024 
L 388.93861 296.608252 
L 398.487273 275.654551 
L 398.487273 260.687622 
L 398.487273 260.687622 
L 388.93861 278.647937 
L 379.389947 290.62148 
L 369.841283 289.623685 
L 360.29262 291.619276 
L 350.743957 291.619276 
L 341.195294 289.623685 
L 331.646631 261.685417 
L 322.097968 241.729512 
L 312.549305 247.716283 
L 303.000642 262.683213 
L 293.451979 261.685417 
L 283.903316 265.676598 
L 274.354652 250.709669 
L 264.805989 222.771402 
L 255.257326 232.749354 
L 245.708663 264.678803 
L 236.16 248.714079 
L 226.611337 251.707465 
L 217.062674 247.716283 
L 207.514011 271.66337 
L 197.965348 274.656756 
L 188.416684 252.70526 
L 178.868021 262.683213 
L 169.319358 258.692031 
L 159.770695 261.685417 
L 150.222032 229.755969 
L 140.673369 233.74715 
L 131.124706 262.683213 
L 121.576043 251.707465 
L 112.02738 241.729512 
L 102.478717 237.738331 
L 92.930053 242.727307 
L 83.38139 218.78022 
L 73.832727 196.828724 
z
" style="fill:#2ca02c;"/>
   </g>
   <g id="PolyCollection_4">
    <path clip-path="url(#p0cba6cbda8)" d="M 73.832727 158.912504 
L 73.832727 196.828724 
L 83.38139 218.78022 
L 92.930053 242.727307 
L 102.478717 237.738331 
L 112.02738 241.729512 
L 121.576043 251.707465 
L 131.124706 262.683213 
L 140.673369 233.74715 
L 150.222032 229.755969 
L 159.770695 261.685417 
L 169.319358 258.692031 
L 178.868021 262.683213 
L 188.416684 252.70526 
L 197.965348 274.656756 
L 207.514011 271.66337 
L 217.062674 247.716283 
L 226.611337 251.707465 
L 236.16 248.714079 
L 245.708663 264.678803 
L 255.257326 232.749354 
L 264.805989 222.771402 
L 274.354652 250.709669 
L 283.903316 265.676598 
L 293.451979 261.685417 
L 303.000642 262.683213 
L 312.549305 247.716283 
L 322.097968 241.729512 
L 331.646631 261.685417 
L 341.195294 289.623685 
L 350.743957 291.619276 
L 360.29262 291.619276 
L 369.841283 289.623685 
L 379.389947 290.62148 
L 388.93861 278.647937 
L 398.487273 260.687622 
L 398.487273 260.687622 
L 398.487273 260.687622 
L 388.93861 278.647937 
L 379.389947 290.62148 
L 369.841283 289.623685 
L 360.29262 291.619276 
L 350.743957 291.619276 
L 341.195294 289.623685 
L 331.646631 261.685417 
L 322.097968 236.740535 
L 312.549305 242.727307 
L 303.000642 253.703055 
L 293.451979 256.696441 
L 283.903316 259.689827 
L 274.354652 231.751559 
L 264.805989 220.775811 
L 255.257326 231.751559 
L 245.708663 263.681008 
L 236.16 238.736126 
L 226.611337 238.736126 
L 217.062674 224.766992 
L 207.514011 258.692031 
L 197.965348 265.676598 
L 188.416684 246.718488 
L 178.868021 250.709669 
L 169.319358 249.711874 
L 159.770695 248.714079 
L 150.222032 221.773606 
L 140.673369 228.758173 
L 131.124706 250.709669 
L 121.576043 228.758173 
L 112.02738 223.769197 
L 102.478717 226.762583 
L 92.930053 237.738331 
L 83.38139 202.815496 
L 73.832727 158.912504 
z
" style="fill:#d62728;"/>
   </g>
   <g id="PolyCollection_5">
    <path clip-path="url(#p0cba6cbda8)" d="M 73.832727 157.914709 
L 73.832727 158.912504 
L 83.38139 202.815496 
L 92.930053 237.738331 
L 102.478717 226.762583 
L 112.02738 223.769197 
L 121.576043 228.758173 
L 131.124706 250.709669 
L 140.673369 228.758173 
L 150.222032 221.773606 
L 159.770695 248.714079 
L 169.319358 249.711874 
L 178.868021 250.709669 
L 188.416684 246.718488 
L 197.965348 265.676598 
L 207.514011 258.692031 
L 217.062674 224.766992 
L 226.611337 238.736126 
L 236.16 238.736126 
L 245.708663 263.681008 
L 255.257326 231.751559 
L 264.805989 220.775811 
L 274.354652 231.751559 
L 283.903316 259.689827 
L 293.451979 256.696441 
L 303.000642 253.703055 
L 312.549305 242.727307 
L 322.097968 236.740535 
L 331.646631 261.685417 
L 341.195294 289.623685 
L 350.743957 291.619276 
L 360.29262 291.619276 
L 369.841283 289.623685 
L 379.389947 290.62148 
L 388.93861 278.647937 
L 398.487273 260.687622 
L 398.487273 260.687622 
L 398.487273 260.687622 
L 388.93861 278.647937 
L 379.389947 290.62148 
L 369.841283 289.623685 
L 360.29262 291.619276 
L 350.743957 291.619276 
L 341.195294 289.623685 
L 331.646631 261.685417 
L 322.097968 236.740535 
L 312.549305 242.727307 
L 303.000642 253.703055 
L 293.451979 256.696441 
L 283.903316 257.694236 
L 274.354652 229.755969 
L 264.805989 217.782425 
L 255.257326 229.755969 
L 245.708663 261.685417 
L 236.16 236.740535 
L 226.611337 236.740535 
L 217.062674 222.771402 
L 207.514011 256.696441 
L 197.965348 262.683213 
L 188.416684 244.722898 
L 178.868021 248.714079 
L 169.319358 246.718488 
L 159.770695 244.722898 
L 150.222032 218.78022 
L 140.673369 226.762583 
L 131.124706 247.716283 
L 121.576043 226.762583 
L 112.02738 219.778016 
L 102.478717 221.773606 
L 92.930053 233.74715 
L 83.38139 200.819906 
L 73.832727 157.914709 
z
" style="fill:#9467bd;"/>
   </g>
   <g id="PolyCollection_6">
    <path clip-path="url(#p0cba6cbda8)" d="M 73.832727 135.963213 
L 73.832727 157.914709 
L 83.38139 200.819906 
L 92.930053 233.74715 
L 102.478717 221.773606 
L 112.02738 219.778016 
L 121.576043 226.762583 
L 131.124706 247.716283 
L 140.673369 226.762583 
L 150.222032 218.78022 
L 159.770695 244.722898 
L 169.319358 246.718488 
L 178.868021 248.714079 
L 188.416684 244.722898 
L 197.965348 262.683213 
L 207.514011 256.696441 
L 217.062674 222.771402 
L 226.611337 236.740535 
L 236.16 236.740535 
L 245.708663 261.685417 
L 255.257326 229.755969 
L 264.805989 217.782425 
L 274.354652 229.755969 
L 283.903316 257.694236 
L 293.451979 256.696441 
L 303.000642 253.703055 
L 312.549305 242.727307 
L 322.097968 236.740535 
L 331.646631 261.685417 
L 341.195294 289.623685 
L 350.743957 291.619276 
L 360.29262 291.619276 
L 369.841283 289.623685 
L 379.389947 290.62148 
L 388.93861 278.647937 
L 398.487273 260.687622 
L 398.487273 247.716283 
L 398.487273 247.716283 
L 388.93861 273.658961 
L 379.389947 284.634709 
L 369.841283 277.650142 
L 360.29262 279.645732 
L 350.743957 277.650142 
L 341.195294 267.672189 
L 331.646631 247.716283 
L 322.097968 214.789039 
L 312.549305 220.775811 
L 303.000642 241.729512 
L 293.451979 230.753764 
L 283.903316 238.736126 
L 274.354652 204.811087 
L 264.805989 177.870614 
L 255.257326 203.813291 
L 245.708663 235.74274 
L 236.16 205.808882 
L 226.611337 211.795654 
L 217.062674 208.802268 
L 207.514011 234.744945 
L 197.965348 229.755969 
L 188.416684 225.764787 
L 178.868021 235.74274 
L 169.319358 229.755969 
L 159.770695 229.755969 
L 150.222032 211.795654 
L 140.673369 202.815496 
L 131.124706 225.764787 
L 121.576043 203.813291 
L 112.02738 181.861795 
L 102.478717 193.835339 
L 92.930053 181.861795 
L 83.38139 150.930142 
L 73.832727 135.963213 
z
" style="fill:#8c564b;"/>
   </g>
   <g id="PolyCollection_7">
    <path clip-path="url(#p0cba6cbda8)" d="M 73.832727 114.011717 
L 73.832727 135.963213 
L 83.38139 150.930142 
L 92.930053 181.861795 
L 102.478717 193.835339 
L 112.02738 181.861795 
L 121.576043 203.813291 
L 131.124706 225.764787 
L 140.673369 202.815496 
L 150.222032 211.795654 
L 159.770695 229.755969 
L 169.319358 229.755969 
L 178.868021 235.74274 
L 188.416684 225.764787 
L 197.965348 229.755969 
L 207.514011 234.744945 
L 217.062674 208.802268 
L 226.611337 211.795654 
L 236.16 205.808882 
L 245.708663 235.74274 
L 255.257326 203.813291 
L 264.805989 177.870614 
L 274.354652 204.811087 
L 283.903316 238.736126 
L 293.451979 230.753764 
L 303.000642 241.729512 
L 312.549305 220.775811 
L 322.097968 214.789039 
L 331.646631 247.716283 
L 341.195294 267.672189 
L 350.743957 277.650142 
L 360.29262 279.645732 
L 369.841283 277.650142 
L 379.389947 284.634709 
L 388.93861 273.658961 
L 398.487273 247.716283 
L 398.487273 247.716283 
L 398.487273 247.716283 
L 388.93861 273.658961 
L 379.389947 284.634709 
L 369.841283 277.650142 
L 360.29262 279.645732 
L 350.743957 277.650142 
L 341.195294 267.672189 
L 331.646631 247.716283 
L 322.097968 214.789039 
L 312.549305 220.775811 
L 303.000642 241.729512 
L 293.451979 230.753764 
L 283.903316 238.736126 
L 274.354652 204.811087 
L 264.805989 175.875024 
L 255.257326 200.819906 
L 245.708663 233.74715 
L 236.16 202.815496 
L 226.611337 209.800063 
L 217.062674 206.806677 
L 207.514011 231.751559 
L 197.965348 227.760378 
L 188.416684 222.771402 
L 178.868021 233.74715 
L 169.319358 226.762583 
L 159.770695 227.760378 
L 150.222032 209.800063 
L 140.673369 200.819906 
L 131.124706 222.771402 
L 121.576043 201.817701 
L 112.02738 178.868409 
L 102.478717 191.839748 
L 92.930053 178.868409 
L 83.38139 149.932346 
L 73.832727 114.011717 
z
" style="fill:#e377c2;"/>
   </g>
   <g id="PolyCollection_8">
    <path clip-path="url(#p0cba6cbda8)" d="M 73.832727 100.042583 
L 73.832727 114.011717 
L 83.38139 149.932346 
L 92.930053 178.868409 
L 102.478717 191.839748 
L 112.02738 178.868409 
L 121.576043 201.817701 
L 131.124706 222.771402 
L 140.673369 200.819906 
L 150.222032 209.800063 
L 159.770695 227.760378 
L 169.319358 226.762583 
L 178.868021 233.74715 
L 188.416684 222.771402 
L 197.965348 227.760378 
L 207.514011 231.751559 
L 217.062674 206.806677 
L 226.611337 209.800063 
L 236.16 202.815496 
L 245.708663 233.74715 
L 255.257326 200.819906 
L 264.805989 175.875024 
L 274.354652 204.811087 
L 283.903316 238.736126 
L 293.451979 230.753764 
L 303.000642 241.729512 
L 312.549305 220.775811 
L 322.097968 214.789039 
L 331.646631 247.716283 
L 341.195294 267.672189 
L 350.743957 277.650142 
L 360.29262 279.645732 
L 369.841283 277.650142 
L 379.389947 284.634709 
L 388.93861 273.658961 
L 398.487273 247.716283 
L 398.487273 173.879433 
L 398.487273 173.879433 
L 388.93861 215.786835 
L 379.389947 213.791244 
L 369.841283 221.773606 
L 360.29262 230.753764 
L 350.743957 233.74715 
L 341.195294 223.769197 
L 331.646631 215.786835 
L 322.097968 184.855181 
L 312.549305 189.844157 
L 303.000642 214.789039 
L 293.451979 192.837543 
L 283.903316 196.828724 
L 274.354652 161.90589 
L 264.805989 165.897071 
L 255.257326 185.852976 
L 245.708663 225.764787 
L 236.16 193.835339 
L 226.611337 195.830929 
L 217.062674 186.850772 
L 207.514011 220.775811 
L 197.965348 214.789039 
L 188.416684 192.837543 
L 178.868021 191.839748 
L 169.319358 195.830929 
L 159.770695 182.859591 
L 150.222032 190.841953 
L 140.673369 183.857386 
L 131.124706 196.828724 
L 121.576043 182.859591 
L 112.02738 158.912504 
L 102.478717 169.888252 
L 92.930053 154.921323 
L 83.38139 142.94778 
L 73.832727 100.042583 
z
" style="fill:#7f7f7f;"/>
   </g>
   <g id="PolyCollection_9">
    <path clip-path="url(#p0cba6cbda8)" d="M 73.832727 99.044787 
L 73.832727 100.042583 
L 83.38139 142.94778 
L 92.930053 154.921323 
L 102.478717 169.888252 
L 112.02738 158.912504 
L 121.576043 182.859591 
L 131.124706 196.828724 
L 140.673369 183.857386 
L 150.222032 190.841953 
L 159.770695 182.859591 
L 169.319358 195.830929 
L 178.868021 191.839748 
L 188.416684 192.837543 
L 197.965348 214.789039 
L 207.514011 220.775811 
L 217.062674 186.850772 
L 226.611337 195.830929 
L 236.16 193.835339 
L 245.708663 225.764787 
L 255.257326 185.852976 
L 264.805989 165.897071 
L 274.354652 161.90589 
L 283.903316 196.828724 
L 293.451979 192.837543 
L 303.000642 214.789039 
L 312.549305 189.844157 
L 322.097968 184.855181 
L 331.646631 215.786835 
L 341.195294 223.769197 
L 350.743957 233.74715 
L 360.29262 230.753764 
L 369.841283 221.773606 
L 379.389947 213.791244 
L 388.93861 215.786835 
L 398.487273 173.879433 
L 398.487273 173.879433 
L 398.487273 173.879433 
L 388.93861 215.786835 
L 379.389947 213.791244 
L 369.841283 221.773606 
L 360.29262 230.753764 
L 350.743957 233.74715 
L 341.195294 223.769197 
L 331.646631 215.786835 
L 322.097968 184.855181 
L 312.549305 189.844157 
L 303.000642 214.789039 
L 293.451979 192.837543 
L 283.903316 196.828724 
L 274.354652 159.910299 
L 264.805989 162.903685 
L 255.257326 183.857386 
L 245.708663 223.769197 
L 236.16 190.841953 
L 226.611337 193.835339 
L 217.062674 184.855181 
L 207.514011 217.782425 
L 197.965348 212.793449 
L 188.416684 190.841953 
L 178.868021 188.846362 
L 169.319358 193.835339 
L 159.770695 179.866205 
L 150.222032 188.846362 
L 140.673369 179.866205 
L 131.124706 191.839748 
L 121.576043 178.868409 
L 112.02738 155.919118 
L 102.478717 165.897071 
L 92.930053 147.936756 
L 83.38139 136.961008 
L 73.832727 99.044787 
z
" style="fill:#bcbd22;"/>
   </g>
   <g id="PolyCollection_10">
    <path clip-path="url(#p0cba6cbda8)" d="M 73.832727 98.046992 
L 73.832727 99.044787 
L 83.38139 136.961008 
L 92.930053 147.936756 
L 102.478717 165.897071 
L 112.02738 155.919118 
L 121.576043 178.868409 
L 131.124706 191.839748 
L 140.673369 179.866205 
L 150.222032 188.846362 
L 159.770695 179.866205 
L 169.319358 193.835339 
L 178.868021 188.846362 
L 188.416684 190.841953 
L 197.965348 212.793449 
L 207.514011 217.782425 
L 217.062674 184.855181 
L 226.611337 193.835339 
L 236.16 190.841953 
L 245.708663 223.769197 
L 255.257326 183.857386 
L 264.805989 162.903685 
L 274.354652 159.910299 
L 283.903316 196.828724 
L 293.451979 192.837543 
L 303.000642 214.789039 
L 312.549305 189.844157 
L 322.097968 184.855181 
L 331.646631 215.786835 
L 341.195294 223.769197 
L 350.743957 233.74715 
L 360.29262 230.753764 
L 369.841283 221.773606 
L 379.389947 213.791244 
L 388.93861 215.786835 
L 398.487273 173.879433 
L 398.487273 171.883843 
L 398.487273 171.883843 
L 388.93861 213.791244 
L 379.389947 211.795654 
L 369.841283 219.778016 
L 360.29262 227.760378 
L 350.743957 231.751559 
L 341.195294 220.775811 
L 331.646631 213.791244 
L 322.097968 181.861795 
L 312.549305 187.848567 
L 303.000642 211.795654 
L 293.451979 190.841953 
L 283.903316 194.833134 
L 274.354652 156.916913 
L 264.805989 160.908094 
L 255.257326 181.861795 
L 245.708663 221.773606 
L 236.16 188.846362 
L 226.611337 190.841953 
L 217.062674 182.859591 
L 207.514011 215.786835 
L 197.965348 210.797858 
L 188.416684 188.846362 
L 178.868021 186.850772 
L 169.319358 190.841953 
L 159.770695 177.870614 
L 150.222032 186.850772 
L 140.673369 177.870614 
L 131.124706 189.844157 
L 121.576043 175.875024 
L 112.02738 151.927937 
L 102.478717 162.903685 
L 92.930053 144.94337 
L 83.38139 134.965417 
L 73.832727 98.046992 
z
" style="fill:#17becf;"/>
   </g>
   <g id="PolyCollection_11">
    <path clip-path="url(#p0cba6cbda8)" d="M 73.832727 93.058016 
L 73.832727 98.046992 
L 83.38139 134.965417 
L 92.930053 144.94337 
L 102.478717 162.903685 
L 112.02738 151.927937 
L 121.576043 175.875024 
L 131.124706 189.844157 
L 140.673369 177.870614 
L 150.222032 186.850772 
L 159.770695 177.870614 
L 169.319358 190.841953 
L 178.868021 186.850772 
L 188.416684 188.846362 
L 197.965348 210.797858 
L 207.514011 215.786835 
L 217.062674 182.859591 
L 226.611337 190.841953 
L 236.16 188.846362 
L 245.708663 221.773606 
L 255.257326 181.861795 
L 264.805989 160.908094 
L 274.354652 156.916913 
L 283.903316 194.833134 
L 293.451979 190.841953 
L 303.000642 211.795654 
L 312.549305 187.848567 
L 322.097968 181.861795 
L 331.646631 213.791244 
L 341.195294 220.775811 
L 350.743957 231.751559 
L 360.29262 227.760378 
L 369.841283 219.778016 
L 379.389947 211.795654 
L 388.93861 213.791244 
L 398.487273 171.883843 
L 398.487273 130.974236 
L 398.487273 130.974236 
L 388.93861 168.890457 
L 379.389947 173.879433 
L 369.841283 188.846362 
L 360.29262 188.846362 
L 350.743957 201.817701 
L 341.195294 198.824315 
L 331.646631 188.846362 
L 322.097968 157.914709 
L 312.549305 171.883843 
L 303.000642 186.850772 
L 293.451979 179.866205 
L 283.903316 175.875024 
L 274.354652 148.934551 
L 264.805989 149.932346 
L 255.257326 176.872819 
L 245.708663 208.802268 
L 236.16 171.883843 
L 226.611337 176.872819 
L 217.062674 165.897071 
L 207.514011 196.828724 
L 197.965348 188.846362 
L 188.416684 177.870614 
L 178.868021 168.890457 
L 169.319358 160.908094 
L 159.770695 164.899276 
L 150.222032 167.892661 
L 140.673369 166.894866 
L 131.124706 179.866205 
L 121.576043 166.894866 
L 112.02738 143.945575 
L 102.478717 155.919118 
L 92.930053 136.961008 
L 83.38139 131.972031 
L 73.832727 93.058016 
z
" style="fill:#1f77b4;"/>
   </g>
   <g id="PolyCollection_12">
    <path clip-path="url(#p0cba6cbda8)" d="M 73.832727 87.071244 
L 73.832727 93.058016 
L 83.38139 131.972031 
L 92.930053 136.961008 
L 102.478717 155.919118 
L 112.02738 143.945575 
L 121.576043 166.894866 
L 131.124706 179.866205 
L 140.673369 166.894866 
L 150.222032 167.892661 
L 159.770695 164.899276 
L 169.319358 160.908094 
L 178.868021 168.890457 
L 188.416684 177.870614 
L 197.965348 188.846362 
L 207.514011 196.828724 
L 217.062674 165.897071 
L 226.611337 176.872819 
L 236.16 171.883843 
L 245.708663 208.802268 
L 255.257326 176.872819 
L 264.805989 149.932346 
L 274.354652 148.934551 
L 283.903316 175.875024 
L 293.451979 179.866205 
L 303.000642 186.850772 
L 312.549305 171.883843 
L 322.097968 157.914709 
L 331.646631 188.846362 
L 341.195294 198.824315 
L 350.743957 201.817701 
L 360.29262 188.846362 
L 369.841283 188.846362 
L 379.389947 173.879433 
L 388.93861 168.890457 
L 398.487273 130.974236 
L 398.487273 130.974236 
L 398.487273 130.974236 
L 388.93861 168.890457 
L 379.389947 173.879433 
L 369.841283 188.846362 
L 360.29262 188.846362 
L 350.743957 180.864 
L 341.195294 180.864 
L 331.646631 164.899276 
L 322.097968 139.954394 
L 312.549305 156.916913 
L 303.000642 167.892661 
L 293.451979 156.916913 
L 283.903316 158.912504 
L 274.354652 139.954394 
L 264.805989 139.954394 
L 255.257326 163.90148 
L 245.708663 189.844157 
L 236.16 145.941165 
L 226.611337 153.923528 
L 217.062674 154.921323 
L 207.514011 175.875024 
L 197.965348 179.866205 
L 188.416684 164.899276 
L 178.868021 161.90589 
L 169.319358 149.932346 
L 159.770695 151.927937 
L 150.222032 148.934551 
L 140.673369 136.961008 
L 131.124706 160.908094 
L 121.576043 131.972031 
L 112.02738 122.991874 
L 102.478717 128.978646 
L 92.930053 129.976441 
L 83.38139 122.991874 
L 73.832727 87.071244 
z
" style="fill:#ff7f0e;"/>
   </g>
   <g id="PolyCollection_13">
    <path clip-path="url(#p0cba6cbda8)" d="M 73.832727 86.073449 
L 73.832727 87.071244 
L 83.38139 122.991874 
L 92.930053 129.976441 
L 102.478717 128.978646 
L 112.02738 122.991874 
L 121.576043 131.972031 
L 131.124706 160.908094 
L 140.673369 136.961008 
L 150.222032 148.934551 
L 159.770695 151.927937 
L 169.319358 149.932346 
L 178.868021 161.90589 
L 188.416684 164.899276 
L 197.965348 179.866205 
L 207.514011 175.875024 
L 217.062674 154.921323 
L 226.611337 153.923528 
L 236.16 145.941165 
L 245.708663 189.844157 
L 255.257326 163.90148 
L 264.805989 139.954394 
L 274.354652 139.954394 
L 283.903316 158.912504 
L 293.451979 156.916913 
L 303.000642 167.892661 
L 312.549305 156.916913 
L 322.097968 139.954394 
L 331.646631 164.899276 
L 341.195294 180.864 
L 350.743957 180.864 
L 360.29262 188.846362 
L 369.841283 188.846362 
L 379.389947 173.879433 
L 388.93861 168.890457 
L 398.487273 130.974236 
L 398.487273 126.983055 
L 398.487273 126.983055 
L 388.93861 165.897071 
L 379.389947 169.888252 
L 369.841283 183.857386 
L 360.29262 183.857386 
L 350.743957 174.877228 
L 341.195294 175.875024 
L 331.646631 161.90589 
L 322.097968 137.958803 
L 312.549305 151.927937 
L 303.000642 163.90148 
L 293.451979 151.927937 
L 283.903316 154.921323 
L 274.354652 134.965417 
L 264.805989 134.965417 
L 255.257326 157.914709 
L 245.708663 184.855181 
L 236.16 141.949984 
L 226.611337 148.934551 
L 217.062674 151.927937 
L 207.514011 171.883843 
L 197.965348 174.877228 
L 188.416684 158.912504 
L 178.868021 156.916913 
L 169.319358 145.941165 
L 159.770695 148.934551 
L 150.222032 144.94337 
L 140.673369 130.974236 
L 131.124706 155.919118 
L 121.576043 126.983055 
L 112.02738 118.002898 
L 102.478717 123.989669 
L 92.930053 125.98526 
L 83.38139 120.996283 
L 73.832727 86.073449 
z
" style="fill:#2ca02c;"/>
   </g>
   <g id="PolyCollection_14">
    <path clip-path="url(#p0cba6cbda8)" d="M 73.832727 85.075654 
L 73.832727 86.073449 
L 83.38139 120.996283 
L 92.930053 125.98526 
L 102.478717 123.989669 
L 112.02738 118.002898 
L 121.576043 126.983055 
L 131.124706 155.919118 
L 140.673369 130.974236 
L 150.222032 144.94337 
L 159.770695 148.934551 
L 169.319358 145.941165 
L 178.868021 156.916913 
L 188.416684 158.912504 
L 197.965348 174.877228 
L 207.514011 171.883843 
L 217.062674 151.927937 
L 226.611337 148.934551 
L 236.16 141.949984 
L 245.708663 184.855181 
L 255.257326 157.914709 
L 264.805989 134.965417 
L 274.354652 134.965417 
L 283.903316 154.921323 
L 293.451979 151.927937 
L 303.000642 163.90148 
L 312.549305 151.927937 
L 322.097968 137.958803 
L 331.646631 161.90589 
L 341.195294 175.875024 
L 350.743957 174.877228 
L 360.29262 183.857386 
L 369.841283 183.857386 
L 379.389947 169.888252 
L 388.93861 165.897071 
L 398.487273 126.983055 
L 398.487273 117.005102 
L 398.487273 117.005102 
L 388.93861 157.914709 
L 379.389947 153.923528 
L 369.841283 168.890457 
L 360.29262 166.894866 
L 350.743957 157.914709 
L 341.195294 156.916913 
L 331.646631 144.94337 
L 322.097968 122.991874 
L 312.549305 134.965417 
L 303.000642 148.934551 
L 293.451979 139.954394 
L 283.903316 140.952189 
L 274.354652 126.983055 
L 264.805989 120.996283 
L 255.257326 144.94337 
L 245.708663 168.890457 
L 236.16 123.989669 
L 226.611337 131.972031 
L 217.062674 133.967622 
L 207.514011 156.916913 
L 197.965348 163.90148 
L 188.416684 149.932346 
L 178.868021 143.945575 
L 169.319358 136.961008 
L 159.770695 137.958803 
L 150.222032 131.972031 
L 140.673369 126.983055 
L 131.124706 151.927937 
L 121.576043 123.989669 
L 112.02738 114.011717 
L 102.478717 119.000693 
L 92.930053 121.994079 
L 83.38139 119.000693 
L 73.832727 85.075654 
z
" style="fill:#d62728;"/>
   </g>
   <g id="PolyCollection_15">
    <path clip-path="url(#p0cba6cbda8)" d="M 73.832727 81.084472 
L 73.832727 85.075654 
L 83.38139 119.000693 
L 92.930053 121.994079 
L 102.478717 119.000693 
L 112.02738 114.011717 
L 121.576043 123.989669 
L 131.124706 151.927937 
L 140.673369 126.983055 
L 150.222032 131.972031 
L 159.770695 137.958803 
L 169.319358 136.961008 
L 178.868021 143.945575 
L 188.416684 149.932346 
L 197.965348 163.90148 
L 207.514011 156.916913 
L 217.062674 133.967622 
L 226.611337 131.972031 
L 236.16 123.989669 
L 245.708663 168.890457 
L 255.257326 144.94337 
L 264.805989 120.996283 
L 274.354652 126.983055 
L 283.903316 140.952189 
L 293.451979 139.954394 
L 303.000642 148.934551 
L 312.549305 134.965417 
L 322.097968 122.991874 
L 331.646631 144.94337 
L 341.195294 156.916913 
L 350.743957 157.914709 
L 360.29262 166.894866 
L 369.841283 168.890457 
L 379.389947 153.923528 
L 388.93861 157.914709 
L 398.487273 117.005102 
L 398.487273 111.018331 
L 398.487273 111.018331 
L 388.93861 120.996283 
L 379.389947 118.002898 
L 369.841283 120.996283 
L 360.29262 132.969827 
L 350.743957 135.963213 
L 341.195294 127.98085 
L 331.646631 137.958803 
L 322.097968 115.009512 
L 312.549305 118.002898 
L 303.000642 143.945575 
L 293.451979 130.974236 
L 283.903316 129.976441 
L 274.354652 121.994079 
L 264.805989 115.009512 
L 255.257326 128.978646 
L 245.708663 136.961008 
L 236.16 122.991874 
L 226.611337 117.005102 
L 217.062674 126.983055 
L 207.514011 143.945575 
L 197.965348 147.936756 
L 188.416684 146.938961 
L 178.868021 137.958803 
L 169.319358 125.98526 
L 159.770695 128.978646 
L 150.222032 121.994079 
L 140.673369 116.007307 
L 131.124706 111.018331 
L 121.576043 116.007307 
L 112.02738 106.029354 
L 102.478717 107.02715 
L 92.930053 117.005102 
L 83.38139 116.007307 
L 73.832727 81.084472 
z
" style="fill:#9467bd;"/>
   </g>
   <g id="PolyCollection_16">
    <path clip-path="url(#p0cba6cbda8)" d="M 73.832727 79.088882 
L 73.832727 81.084472 
L 83.38139 116.007307 
L 92.930053 117.005102 
L 102.478717 107.02715 
L 112.02738 106.029354 
L 121.576043 116.007307 
L 131.124706 111.018331 
L 140.673369 116.007307 
L 150.222032 121.994079 
L 159.770695 128.978646 
L 169.319358 125.98526 
L 178.868021 137.958803 
L 188.416684 146.938961 
L 197.965348 147.936756 
L 207.514011 143.945575 
L 217.062674 126.983055 
L 226.611337 117.005102 
L 236.16 122.991874 
L 245.708663 136.961008 
L 255.257326 128.978646 
L 264.805989 115.009512 
L 274.354652 121.994079 
L 283.903316 129.976441 
L 293.451979 130.974236 
L 303.000642 143.945575 
L 312.549305 118.002898 
L 322.097968 115.009512 
L 331.646631 137.958803 
L 341.195294 127.98085 
L 350.743957 135.963213 
L 360.29262 132.969827 
L 369.841283 120.996283 
L 379.389947 118.002898 
L 388.93861 120.996283 
L 398.487273 111.018331 
L 398.487273 109.02274 
L 398.487273 109.02274 
L 388.93861 119.000693 
L 379.389947 115.009512 
L 369.841283 117.005102 
L 360.29262 129.976441 
L 350.743957 131.972031 
L 341.195294 124.987465 
L 331.646631 134.965417 
L 322.097968 113.013921 
L 312.549305 116.007307 
L 303.000642 141.949984 
L 293.451979 127.98085 
L 283.903316 127.98085 
L 274.354652 119.000693 
L 264.805989 113.013921 
L 255.257326 126.983055 
L 245.708663 134.965417 
L 236.16 120.996283 
L 226.611337 114.011717 
L 217.062674 124.987465 
L 207.514011 140.952189 
L 197.965348 145.941165 
L 188.416684 143.945575 
L 178.868021 135.963213 
L 169.319358 123.989669 
L 159.770695 126.983055 
L 150.222032 119.998488 
L 140.673369 113.013921 
L 131.124706 109.02274 
L 121.576043 113.013921 
L 112.02738 102.038173 
L 102.478717 104.033764 
L 92.930053 114.011717 
L 83.38139 114.011717 
L 73.832727 79.088882 
z
" style="fill:#8c564b;"/>
   </g>
   <g id="PolyCollection_17">
    <path clip-path="url(#p0cba6cbda8)" d="M 73.832727 78.091087 
L 73.832727 79.088882 
L 83.38139 114.011717 
L 92.930053 114.011717 
L 102.478717 104.033764 
L 112.02738 102.038173 
L 121.576043 113.013921 
L 131.124706 109.02274 
L 140.673369 113.013921 
L 150.222032 119.998488 
L 159.770695 126.983055 
L 169.319358 123.989669 
L 178.868021 135.963213 
L 188.416684 143.945575 
L 197.965348 145.941165 
L 207.514011 140.952189 
L 217.062674 124.987465 
L 226.611337 114.011717 
L 236.16 120.996283 
L 245.708663 134.965417 
L 255.257326 126.983055 
L 264.805989 113.013921 
L 274.354652 119.000693 
L 283.903316 127.98085 
L 293.451979 127.98085 
L 303.000642 141.949984 
L 312.549305 116.007307 
L 322.097968 113.013921 
L 331.646631 134.965417 
L 341.195294 124.987465 
L 350.743957 131.972031 
L 360.29262 129.976441 
L 369.841283 117.005102 
L 379.389947 115.009512 
L 388.93861 119.000693 
L 398.487273 109.02274 
L 398.487273 107.02715 
L 398.487273 107.02715 
L 388.93861 117.005102 
L 379.389947 112.016126 
L 369.841283 115.009512 
L 360.29262 127.98085 
L 350.743957 129.976441 
L 341.195294 122.991874 
L 331.646631 132.969827 
L 322.097968 111.018331 
L 312.549305 114.011717 
L 303.000642 139.954394 
L 293.451979 125.98526 
L 283.903316 124.987465 
L 274.354652 117.005102 
L 264.805989 111.018331 
L 255.257326 124.987465 
L 245.708663 132.969827 
L 236.16 119.000693 
L 226.611337 112.016126 
L 217.062674 122.991874 
L 207.514011 138.956598 
L 197.965348 142.94778 
L 188.416684 141.949984 
L 178.868021 132.969827 
L 169.319358 119.998488 
L 159.770695 123.989669 
L 150.222032 118.002898 
L 140.673369 111.018331 
L 131.124706 107.02715 
L 121.576043 110.020535 
L 112.02738 100.042583 
L 102.478717 101.040378 
L 92.930053 110.020535 
L 83.38139 110.020535 
L 73.832727 78.091087 
z
" style="fill:#e377c2;"/>
   </g>
   <g id="PolyCollection_18">
    <path clip-path="url(#p0cba6cbda8)" d="M 73.832727 77.093291 
L 73.832727 78.091087 
L 83.38139 110.020535 
L 92.930053 110.020535 
L 102.478717 101.040378 
L 112.02738 100.042583 
L 121.576043 110.020535 
L 131.124706 107.02715 
L 140.673369 111.018331 
L 150.222032 118.002898 
L 159.770695 123.989669 
L 169.319358 119.998488 
L 178.868021 132.969827 
L 188.416684 141.949984 
L 197.965348 142.94778 
L 207.514011 138.956598 
L 217.062674 122.991874 
L 226.611337 112.016126 
L 236.16 119.000693 
L 245.708663 132.969827 
L 255.257326 124.987465 
L 264.805989 111.018331 
L 274.354652 117.005102 
L 283.903316 124.987465 
L 293.451979 125.98526 
L 303.000642 139.954394 
L 312.549305 114.011717 
L 322.097968 111.018331 
L 331.646631 132.969827 
L 341.195294 122.991874 
L 350.743957 129.976441 
L 360.29262 127.98085 
L 369.841283 115.009512 
L 379.389947 112.016126 
L 388.93861 117.005102 
L 398.487273 107.02715 
L 398.487273 107.02715 
L 398.487273 107.02715 
L 388.93861 117.005102 
L 379.389947 109.02274 
L 369.841283 112.016126 
L 360.29262 125.98526 
L 350.743957 127.98085 
L 341.195294 120.996283 
L 331.646631 129.976441 
L 322.097968 109.02274 
L 312.549305 112.016126 
L 303.000642 136.961008 
L 293.451979 123.989669 
L 283.903316 123.989669 
L 274.354652 114.011717 
L 264.805989 107.02715 
L 255.257326 122.991874 
L 245.708663 130.974236 
L 236.16 117.005102 
L 226.611337 108.024945 
L 217.062674 119.998488 
L 207.514011 131.972031 
L 197.965348 137.958803 
L 188.416684 137.958803 
L 178.868021 129.976441 
L 169.319358 116.007307 
L 159.770695 121.994079 
L 150.222032 115.009512 
L 140.673369 106.029354 
L 131.124706 103.035969 
L 121.576043 105.031559 
L 112.02738 96.051402 
L 102.478717 97.049197 
L 92.930053 103.035969 
L 83.38139 104.033764 
L 73.832727 77.093291 
z
" style="fill:#7f7f7f;"/>
   </g>
   <g id="PolyCollection_19">
    <path clip-path="url(#p0cba6cbda8)" d="M 73.832727 73.10211 
L 73.832727 77.093291 
L 83.38139 104.033764 
L 92.930053 103.035969 
L 102.478717 97.049197 
L 112.02738 96.051402 
L 121.576043 105.031559 
L 131.124706 103.035969 
L 140.673369 106.029354 
L 150.222032 115.009512 
L 159.770695 121.994079 
L 169.319358 116.007307 
L 178.868021 129.976441 
L 188.416684 137.958803 
L 197.965348 137.958803 
L 207.514011 131.972031 
L 217.062674 119.998488 
L 226.611337 108.024945 
L 236.16 117.005102 
L 245.708663 130.974236 
L 255.257326 122.991874 
L 264.805989 107.02715 
L 274.354652 114.011717 
L 283.903316 123.989669 
L 293.451979 123.989669 
L 303.000642 136.961008 
L 312.549305 112.016126 
L 322.097968 109.02274 
L 331.646631 129.976441 
L 341.195294 120.996283 
L 350.743957 127.98085 
L 360.29262 125.98526 
L 369.841283 112.016126 
L 379.389947 109.02274 
L 388.93861 117.005102 
L 398.487273 107.02715 
L 398.487273 103.035969 
L 398.487273 103.035969 
L 388.93861 111.018331 
L 379.389947 104.033764 
L 369.841283 108.024945 
L 360.29262 122.991874 
L 350.743957 123.989669 
L 341.195294 117.005102 
L 331.646631 126.983055 
L 322.097968 106.029354 
L 312.549305 108.024945 
L 303.000642 133.967622 
L 293.451979 119.998488 
L 283.903316 120.996283 
L 274.354652 112.016126 
L 264.805989 105.031559 
L 255.257326 120.996283 
L 245.708663 128.978646 
L 236.16 114.011717 
L 226.611337 104.033764 
L 217.062674 117.005102 
L 207.514011 129.976441 
L 197.965348 134.965417 
L 188.416684 135.963213 
L 178.868021 126.983055 
L 169.319358 114.011717 
L 159.770695 119.000693 
L 150.222032 110.020535 
L 140.673369 104.033764 
L 131.124706 100.042583 
L 121.576043 101.040378 
L 112.02738 92.06022 
L 102.478717 94.055811 
L 92.930053 99.044787 
L 83.38139 102.038173 
L 73.832727 73.10211 
z
" style="fill:#bcbd22;"/>
   </g>
   <g id="PolyCollection_20">
    <path clip-path="url(#p0cba6cbda8)" d="M 73.832727 72.104315 
L 73.832727 73.10211 
L 83.38139 102.038173 
L 92.930053 99.044787 
L 102.478717 94.055811 
L 112.02738 92.06022 
L 121.576043 101.040378 
L 131.124706 100.042583 
L 140.673369 104.033764 
L 150.222032 110.020535 
L 159.770695 119.000693 
L 169.319358 114.011717 
L 178.868021 126.983055 
L 188.416684 135.963213 
L 197.965348 134.965417 
L 207.514011 129.976441 
L 217.062674 117.005102 
L 226.611337 104.033764 
L 236.16 114.011717 
L 245.708663 128.978646 
L 255.257326 120.996283 
L 264.805989 105.031559 
L 274.354652 112.016126 
L 283.903316 120.996283 
L 293.451979 119.998488 
L 303.000642 133.967622 
L 312.549305 108.024945 
L 322.097968 106.029354 
L 331.646631 126.983055 
L 341.195294 117.005102 
L 350.743957 123.989669 
L 360.29262 122.991874 
L 369.841283 108.024945 
L 379.389947 104.033764 
L 388.93861 111.018331 
L 398.487273 103.035969 
L 398.487273 103.035969 
L 398.487273 103.035969 
L 388.93861 111.018331 
L 379.389947 104.033764 
L 369.841283 108.024945 
L 360.29262 122.991874 
L 350.743957 123.989669 
L 341.195294 117.005102 
L 331.646631 126.983055 
L 322.097968 106.029354 
L 312.549305 108.024945 
L 303.000642 131.972031 
L 293.451979 117.005102 
L 283.903316 118.002898 
L 274.354652 110.020535 
L 264.805989 103.035969 
L 255.257326 119.000693 
L 245.708663 125.98526 
L 236.16 112.016126 
L 226.611337 101.040378 
L 217.062674 115.009512 
L 207.514011 126.983055 
L 197.965348 132.969827 
L 188.416684 133.967622 
L 178.868021 123.989669 
L 169.319358 112.016126 
L 159.770695 117.005102 
L 150.222032 107.02715 
L 140.673369 102.038173 
L 131.124706 97.049197 
L 121.576043 99.044787 
L 112.02738 88.069039 
L 102.478717 89.066835 
L 92.930053 95.053606 
L 83.38139 97.049197 
L 73.832727 72.104315 
z
" style="fill:#17becf;"/>
   </g>
   <g id="PolyCollection_21">
    <path clip-path="url(#p0cba6cbda8)" d="M 73.832727 71.10652 
L 73.832727 72.104315 
L 83.38139 97.049197 
L 92.930053 95.053606 
L 102.478717 89.066835 
L 112.02738 88.069039 
L 121.576043 99.044787 
L 131.124706 97.049197 
L 140.673369 102.038173 
L 150.222032 107.02715 
L 159.770695 117.005102 
L 169.319358 112.016126 
L 178.868021 123.989669 
L 188.416684 133.967622 
L 197.965348 132.969827 
L 207.514011 126.983055 
L 217.062674 115.009512 
L 226.611337 101.040378 
L 236.16 112.016126 
L 245.708663 125.98526 
L 255.257326 119.000693 
L 264.805989 103.035969 
L 274.354652 110.020535 
L 283.903316 118.002898 
L 293.451979 117.005102 
L 303.000642 131.972031 
L 312.549305 108.024945 
L 322.097968 106.029354 
L 331.646631 126.983055 
L 341.195294 117.005102 
L 350.743957 123.989669 
L 360.29262 122.991874 
L 369.841283 108.024945 
L 379.389947 104.033764 
L 388.93861 111.018331 
L 398.487273 103.035969 
L 398.487273 103.035969 
L 398.487273 103.035969 
L 388.93861 111.018331 
L 379.389947 104.033764 
L 369.841283 108.024945 
L 360.29262 122.991874 
L 350.743957 123.989669 
L 341.195294 117.005102 
L 331.646631 126.983055 
L 322.097968 106.029354 
L 312.549305 108.024945 
L 303.000642 131.972031 
L 293.451979 117.005102 
L 283.903316 116.007307 
L 274.354652 108.024945 
L 264.805989 101.040378 
L 255.257326 116.007307 
L 245.708663 123.989669 
L 236.16 110.020535 
L 226.611337 98.046992 
L 217.062674 113.013921 
L 207.514011 123.989669 
L 197.965348 130.974236 
L 188.416684 131.972031 
L 178.868021 121.994079 
L 169.319358 110.020535 
L 159.770695 115.009512 
L 150.222032 104.033764 
L 140.673369 100.042583 
L 131.124706 94.055811 
L 121.576043 95.053606 
L 112.02738 83.080063 
L 102.478717 83.080063 
L 92.930053 90.06463 
L 83.38139 90.06463 
L 73.832727 71.10652 
z
" style="fill:#1f77b4;"/>
   </g>
   <g id="PolyCollection_22">
    <path clip-path="url(#p0cba6cbda8)" d="M 73.832727 70.108724 
L 73.832727 71.10652 
L 83.38139 90.06463 
L 92.930053 90.06463 
L 102.478717 83.080063 
L 112.02738 83.080063 
L 121.576043 95.053606 
L 131.124706 94.055811 
L 140.673369 100.042583 
L 150.222032 104.033764 
L 159.770695 115.009512 
L 169.319358 110.020535 
L 178.868021 121.994079 
L 188.416684 131.972031 
L 197.965348 130.974236 
L 207.514011 123.989669 
L 217.062674 113.013921 
L 226.611337 98.046992 
L 236.16 110.020535 
L 245.708663 123.989669 
L 255.257326 116.007307 
L 264.805989 101.040378 
L 274.354652 108.024945 
L 283.903316 116.007307 
L 293.451979 117.005102 
L 303.000642 131.972031 
L 312.549305 108.024945 
L 322.097968 106.029354 
L 331.646631 126.983055 
L 341.195294 117.005102 
L 350.743957 123.989669 
L 360.29262 122.991874 
L 369.841283 108.024945 
L 379.389947 104.033764 
L 388.93861 111.018331 
L 398.487273 103.035969 
L 398.487273 89.066835 
L 398.487273 89.066835 
L 388.93861 96.051402 
L 379.389947 92.06022 
L 369.841283 98.046992 
L 360.29262 114.011717 
L 350.743957 111.018331 
L 341.195294 109.02274 
L 331.646631 119.998488 
L 322.097968 102.038173 
L 312.549305 104.033764 
L 303.000642 128.978646 
L 293.451979 113.013921 
L 283.903316 113.013921 
L 274.354652 106.029354 
L 264.805989 98.046992 
L 255.257326 114.011717 
L 245.708663 120.996283 
L 236.16 106.029354 
L 226.611337 95.053606 
L 217.062674 109.02274 
L 207.514011 120.996283 
L 197.965348 128.978646 
L 188.416684 129.976441 
L 178.868021 119.998488 
L 169.319358 108.024945 
L 159.770695 113.013921 
L 150.222032 101.040378 
L 140.673369 96.051402 
L 131.124706 91.062425 
L 121.576043 91.062425 
L 112.02738 78.091087 
L 102.478717 79.088882 
L 92.930053 84.077858 
L 83.38139 80.086677 
L 73.832727 70.108724 
z
" style="fill:#ff7f0e;"/>
   </g>
   <g id="PolyCollection_23">
    <path clip-path="url(#p0cba6cbda8)" d="M 73.832727 69.110929 
L 73.832727 70.108724 
L 83.38139 80.086677 
L 92.930053 84.077858 
L 102.478717 79.088882 
L 112.02738 78.091087 
L 121.576043 91.062425 
L 131.124706 91.062425 
L 140.673369 96.051402 
L 150.222032 101.040378 
L 159.770695 113.013921 
L 169.319358 108.024945 
L 178.868021 119.998488 
L 188.416684 129.976441 
L 197.965348 128.978646 
L 207.514011 120.996283 
L 217.062674 109.02274 
L 226.611337 95.053606 
L 236.16 106.029354 
L 245.708663 120.996283 
L 255.257326 114.011717 
L 264.805989 98.046992 
L 274.354652 106.029354 
L 283.903316 113.013921 
L 293.451979 113.013921 
L 303.000642 128.978646 
L 312.549305 104.033764 
L 322.097968 102.038173 
L 331.646631 119.998488 
L 341.195294 109.02274 
L 350.743957 111.018331 
L 360.29262 114.011717 
L 369.841283 98.046992 
L 379.389947 92.06022 
L 388.93861 96.051402 
L 398.487273 89.066835 
L 398.487273 87.071244 
L 398.487273 87.071244 
L 388.93861 94.055811 
L 379.389947 89.066835 
L 369.841283 96.051402 
L 360.29262 111.018331 
L 350.743957 109.02274 
L 341.195294 107.02715 
L 331.646631 117.005102 
L 322.097968 100.042583 
L 312.549305 102.038173 
L 303.000642 125.98526 
L 293.451979 111.018331 
L 283.903316 110.020535 
L 274.354652 104.033764 
L 264.805989 95.053606 
L 255.257326 112.016126 
L 245.708663 119.000693 
L 236.16 104.033764 
L 226.611337 92.06022 
L 217.062674 107.02715 
L 207.514011 118.002898 
L 197.965348 126.983055 
L 188.416684 126.983055 
L 178.868021 118.002898 
L 169.319358 105.031559 
L 159.770695 111.018331 
L 150.222032 98.046992 
L 140.673369 94.055811 
L 131.124706 88.069039 
L 121.576043 88.069039 
L 112.02738 74.099906 
L 102.478717 76.095496 
L 92.930053 82.082268 
L 83.38139 79.088882 
L 73.832727 69.110929 
z
" style="fill:#2ca02c;"/>
   </g>
   <g id="PolyCollection_24">
    <path clip-path="url(#p0cba6cbda8)" d="M 73.832727 64.121953 
L 73.832727 69.110929 
L 83.38139 79.088882 
L 92.930053 82.082268 
L 102.478717 76.095496 
L 112.02738 74.099906 
L 121.576043 88.069039 
L 131.124706 88.069039 
L 140.673369 94.055811 
L 150.222032 98.046992 
L 159.770695 111.018331 
L 169.319358 105.031559 
L 178.868021 118.002898 
L 188.416684 126.983055 
L 197.965348 126.983055 
L 207.514011 118.002898 
L 217.062674 107.02715 
L 226.611337 92.06022 
L 236.16 104.033764 
L 245.708663 119.000693 
L 255.257326 112.016126 
L 264.805989 95.053606 
L 274.354652 104.033764 
L 283.903316 110.020535 
L 293.451979 111.018331 
L 303.000642 125.98526 
L 312.549305 102.038173 
L 322.097968 100.042583 
L 331.646631 117.005102 
L 341.195294 107.02715 
L 350.743957 109.02274 
L 360.29262 111.018331 
L 369.841283 96.051402 
L 379.389947 89.066835 
L 388.93861 94.055811 
L 398.487273 87.071244 
L 398.487273 75.097701 
L 398.487273 75.097701 
L 388.93861 81.084472 
L 379.389947 74.099906 
L 369.841283 78.091087 
L 360.29262 84.077858 
L 350.743957 85.075654 
L 341.195294 83.080063 
L 331.646631 93.058016 
L 322.097968 75.097701 
L 312.549305 75.097701 
L 303.000642 89.066835 
L 293.451979 88.069039 
L 283.903316 81.084472 
L 274.354652 82.082268 
L 264.805989 74.099906 
L 255.257326 81.084472 
L 245.708663 90.06463 
L 236.16 88.069039 
L 226.611337 74.099906 
L 217.062674 86.073449 
L 207.514011 95.053606 
L 197.965348 101.040378 
L 188.416684 93.058016 
L 178.868021 92.06022 
L 169.319358 74.099906 
L 159.770695 76.095496 
L 150.222032 74.099906 
L 140.673369 76.095496 
L 131.124706 82.082268 
L 121.576043 84.077858 
L 112.02738 71.10652 
L 102.478717 72.104315 
L 92.930053 77.093291 
L 83.38139 76.095496 
L 73.832727 64.121953 
z
" style="fill:#d62728;"/>
   </g>
   <g id="PolyCollection_25">
    <path clip-path="url(#p0cba6cbda8)" d="M 73.832727 63.124157 
L 73.832727 64.121953 
L 83.38139 76.095496 
L 92.930053 77.093291 
L 102.478717 72.104315 
L 112.02738 71.10652 
L 121.576043 84.077858 
L 131.124706 82.082268 
L 140.673369 76.095496 
L 150.222032 74.099906 
L 159.770695 76.095496 
L 169.319358 74.099906 
L 178.868021 92.06022 
L 188.416684 93.058016 
L 197.965348 101.040378 
L 207.514011 95.053606 
L 217.062674 86.073449 
L 226.611337 74.099906 
L 236.16 88.069039 
L 245.708663 90.06463 
L 255.257326 81.084472 
L 264.805989 74.099906 
L 274.354652 82.082268 
L 283.903316 81.084472 
L 293.451979 88.069039 
L 303.000642 89.066835 
L 312.549305 75.097701 
L 322.097968 75.097701 
L 331.646631 93.058016 
L 341.195294 83.080063 
L 350.743957 85.075654 
L 360.29262 84.077858 
L 369.841283 78.091087 
L 379.389947 74.099906 
L 388.93861 81.084472 
L 398.487273 75.097701 
L 398.487273 74.099906 
L 398.487273 74.099906 
L 388.93861 71.10652 
L 379.389947 64.121953 
L 369.841283 69.110929 
L 360.29262 71.10652 
L 350.743957 68.113134 
L 341.195294 74.099906 
L 331.646631 76.095496 
L 322.097968 71.10652 
L 312.549305 74.099906 
L 303.000642 72.104315 
L 293.451979 73.10211 
L 283.903316 72.104315 
L 274.354652 72.104315 
L 264.805989 68.113134 
L 255.257326 68.113134 
L 245.708663 75.097701 
L 236.16 75.097701 
L 226.611337 70.108724 
L 217.062674 78.091087 
L 207.514011 70.108724 
L 197.965348 73.10211 
L 188.416684 70.108724 
L 178.868021 78.091087 
L 169.319358 70.108724 
L 159.770695 72.104315 
L 150.222032 71.10652 
L 140.673369 72.104315 
L 131.124706 80.086677 
L 121.576043 81.084472 
L 112.02738 67.115339 
L 102.478717 67.115339 
L 92.930053 70.108724 
L 83.38139 66.117543 
L 73.832727 63.124157 
z
" style="fill:#9467bd;"/>
   </g>
   <g id="PolyCollection_26">
    <path clip-path="url(#p0cba6cbda8)" d="M 73.832727 62.126362 
L 73.832727 63.124157 
L 83.38139 66.117543 
L 92.930053 70.108724 
L 102.478717 67.115339 
L 112.02738 67.115339 
L 121.576043 81.084472 
L 131.124706 80.086677 
L 140.673369 72.104315 
L 150.222032 71.10652 
L 159.770695 72.104315 
L 169.319358 70.108724 
L 178.868021 78.091087 
L 188.416684 70.108724 
L 197.965348 73.10211 
L 207.514011 70.108724 
L 217.062674 78.091087 
L 226.611337 70.108724 
L 236.16 75.097701 
L 245.708663 75.097701 
L 255.257326 68.113134 
L 264.805989 68.113134 
L 274.354652 72.104315 
L 283.903316 72.104315 
L 293.451979 73.10211 
L 303.000642 72.104315 
L 312.549305 74.099906 
L 322.097968 71.10652 
L 331.646631 76.095496 
L 341.195294 74.099906 
L 350.743957 68.113134 
L 360.29262 71.10652 
L 369.841283 69.110929 
L 379.389947 64.121953 
L 388.93861 71.10652 
L 398.487273 74.099906 
L 398.487273 74.099906 
L 398.487273 74.099906 
L 388.93861 71.10652 
L 379.389947 64.121953 
L 369.841283 69.110929 
L 360.29262 71.10652 
L 350.743957 68.113134 
L 341.195294 74.099906 
L 331.646631 76.095496 
L 322.097968 71.10652 
L 312.549305 74.099906 
L 303.000642 72.104315 
L 293.451979 73.10211 
L 283.903316 72.104315 
L 274.354652 70.108724 
L 264.805989 64.121953 
L 255.257326 66.117543 
L 245.708663 73.10211 
L 236.16 73.10211 
L 226.611337 68.113134 
L 217.062674 75.097701 
L 207.514011 68.113134 
L 197.965348 70.108724 
L 188.416684 68.113134 
L 178.868021 75.097701 
L 169.319358 68.113134 
L 159.770695 69.110929 
L 150.222032 69.110929 
L 140.673369 70.108724 
L 131.124706 78.091087 
L 121.576043 78.091087 
L 112.02738 65.119748 
L 102.478717 64.121953 
L 92.930053 66.117543 
L 83.38139 63.124157 
L 73.832727 62.126362 
z
" style="fill:#8c564b;"/>
   </g>
   <g id="PolyCollection_27">
    <path clip-path="url(#p0cba6cbda8)" d="M 73.832727 60.130772 
L 73.832727 62.126362 
L 83.38139 63.124157 
L 92.930053 66.117543 
L 102.478717 64.121953 
L 112.02738 65.119748 
L 121.576043 78.091087 
L 131.124706 78.091087 
L 140.673369 70.108724 
L 150.222032 69.110929 
L 159.770695 69.110929 
L 169.319358 68.113134 
L 178.868021 75.097701 
L 188.416684 68.113134 
L 197.965348 70.108724 
L 207.514011 68.113134 
L 217.062674 75.097701 
L 226.611337 68.113134 
L 236.16 73.10211 
L 245.708663 73.10211 
L 255.257326 66.117543 
L 264.805989 64.121953 
L 274.354652 70.108724 
L 283.903316 72.104315 
L 293.451979 73.10211 
L 303.000642 72.104315 
L 312.549305 74.099906 
L 322.097968 71.10652 
L 331.646631 76.095496 
L 341.195294 74.099906 
L 350.743957 68.113134 
L 360.29262 71.10652 
L 369.841283 69.110929 
L 379.389947 64.121953 
L 388.93861 71.10652 
L 398.487273 74.099906 
L 398.487273 60.130772 
L 398.487273 60.130772 
L 388.93861 62.126362 
L 379.389947 58.135181 
L 369.841283 60.130772 
L 360.29262 61.128567 
L 350.743957 58.135181 
L 341.195294 63.124157 
L 331.646631 62.126362 
L 322.097968 62.126362 
L 312.549305 64.121953 
L 303.000642 63.124157 
L 293.451979 61.128567 
L 283.903316 59.132976 
L 274.354652 59.132976 
L 264.805989 58.135181 
L 255.257326 59.132976 
L 245.708663 61.128567 
L 236.16 61.128567 
L 226.611337 59.132976 
L 217.062674 62.126362 
L 207.514011 59.132976 
L 197.965348 58.135181 
L 188.416684 60.130772 
L 178.868021 62.126362 
L 169.319358 58.135181 
L 159.770695 60.130772 
L 150.222032 60.130772 
L 140.673369 65.119748 
L 131.124706 69.110929 
L 121.576043 67.115339 
L 112.02738 62.126362 
L 102.478717 61.128567 
L 92.930053 63.124157 
L 83.38139 61.128567 
L 73.832727 60.130772 
z
" style="fill:#e377c2;"/>
   </g>
   <g id="PolyCollection_28">
    <path clip-path="url(#p0cba6cbda8)" d="M 73.832727 59.132976 
L 73.832727 60.130772 
L 83.38139 61.128567 
L 92.930053 63.124157 
L 102.478717 61.128567 
L 112.02738 62.126362 
L 121.576043 67.115339 
L 131.124706 69.110929 
L 140.673369 65.119748 
L 150.222032 60.130772 
L 159.770695 60.130772 
L 169.319358 58.135181 
L 178.868021 62.126362 
L 188.416684 60.130772 
L 197.965348 58.135181 
L 207.514011 59.132976 
L 217.062674 62.126362 
L 226.611337 59.132976 
L 236.16 61.128567 
L 245.708663 61.128567 
L 255.257326 59.132976 
L 264.805989 58.135181 
L 274.354652 59.132976 
L 283.903316 59.132976 
L 293.451979 61.128567 
L 303.000642 63.124157 
L 312.549305 64.121953 
L 322.097968 62.126362 
L 331.646631 62.126362 
L 341.195294 63.124157 
L 350.743957 58.135181 
L 360.29262 61.128567 
L 369.841283 60.130772 
L 379.389947 58.135181 
L 388.93861 62.126362 
L 398.487273 60.130772 
L 398.487273 60.130772 
L 398.487273 60.130772 
L 388.93861 62.126362 
L 379.389947 58.135181 
L 369.841283 60.130772 
L 360.29262 61.128567 
L 350.743957 58.135181 
L 341.195294 63.124157 
L 331.646631 62.126362 
L 322.097968 59.132976 
L 312.549305 60.130772 
L 303.000642 60.130772 
L 293.451979 58.135181 
L 283.903316 57.137386 
L 274.354652 57.137386 
L 264.805989 56.139591 
L 255.257326 56.139591 
L 245.708663 59.132976 
L 236.16 60.130772 
L 226.611337 56.139591 
L 217.062674 60.130772 
L 207.514011 57.137386 
L 197.965348 56.139591 
L 188.416684 58.135181 
L 178.868021 60.130772 
L 169.319358 56.139591 
L 159.770695 58.135181 
L 150.222032 58.135181 
L 140.673369 63.124157 
L 131.124706 64.121953 
L 121.576043 63.124157 
L 112.02738 59.132976 
L 102.478717 59.132976 
L 92.930053 61.128567 
L 83.38139 58.135181 
L 73.832727 59.132976 
z
" style="fill:#7f7f7f;"/>
   </g>
   <g id="PolyCollection_29">
    <path clip-path="url(#p0cba6cbda8)" d="M 73.832727 58.135181 
L 73.832727 59.132976 
L 83.38139 58.135181 
L 92.930053 61.128567 
L 102.478717 59.132976 
L 112.02738 59.132976 
L 121.576043 63.124157 
L 131.124706 64.121953 
L 140.673369 63.124157 
L 150.222032 58.135181 
L 159.770695 58.135181 
L 169.319358 56.139591 
L 178.868021 60.130772 
L 188.416684 58.135181 
L 197.965348 56.139591 
L 207.514011 57.137386 
L 217.062674 60.130772 
L 226.611337 56.139591 
L 236.16 60.130772 
L 245.708663 59.132976 
L 255.257326 56.139591 
L 264.805989 56.139591 
L 274.354652 57.137386 
L 283.903316 57.137386 
L 293.451979 58.135181 
L 303.000642 60.130772 
L 312.549305 60.130772 
L 322.097968 59.132976 
L 331.646631 62.126362 
L 341.195294 63.124157 
L 350.743957 58.135181 
L 360.29262 61.128567 
L 369.841283 60.130772 
L 379.389947 58.135181 
L 388.93861 62.126362 
L 398.487273 60.130772 
L 398.487273 57.137386 
L 398.487273 57.137386 
L 388.93861 60.130772 
L 379.389947 56.139591 
L 369.841283 57.137386 
L 360.29262 59.132976 
L 350.743957 56.139591 
L 341.195294 60.130772 
L 331.646631 60.130772 
L 322.097968 57.137386 
L 312.549305 58.135181 
L 303.000642 58.135181 
L 293.451979 56.139591 
L 283.903316 55.141795 
L 274.354652 54.144 
L 264.805989 54.144 
L 255.257326 54.144 
L 245.708663 57.137386 
L 236.16 58.135181 
L 226.611337 54.144 
L 217.062674 57.137386 
L 207.514011 55.141795 
L 197.965348 54.144 
L 188.416684 56.139591 
L 178.868021 58.135181 
L 169.319358 54.144 
L 159.770695 56.139591 
L 150.222032 55.141795 
L 140.673369 59.132976 
L 131.124706 61.128567 
L 121.576043 61.128567 
L 112.02738 56.139591 
L 102.478717 57.137386 
L 92.930053 59.132976 
L 83.38139 56.139591 
L 73.832727 58.135181 
z
" style="fill:#bcbd22;"/>
   </g>
   <g id="matplotlib.axis_1">
    <g id="xtick_1">
     <g id="line2d_1">
      <defs>
       <path d="M 0 0 
L 0 3.5 
" id="mc6e3e0fbf8" style="stroke:#000000;stroke-width:0.8;"/>
      </defs>
      <g>
       <use style="stroke:#000000;stroke-width:0.8;" x="73.832727" xlink:href="#mc6e3e0fbf8" y="307.584"/>
      </g>
     </g>
     <g id="text_1">
      <!-- 0 -->
      <defs>
       <path d="M 31.78125 66.40625 
Q 24.171875 66.40625 20.328125 58.90625 
Q 16.5 51.421875 16.5 36.375 
Q 16.5 21.390625 20.328125 13.890625 
Q 24.171875 6.390625 31.78125 6.390625 
Q 39.453125 6.390625 43.28125 13.890625 
Q 47.125 21.390625 47.125 36.375 
Q 47.125 51.421875 43.28125 58.90625 
Q 39.453125 66.40625 31.78125 66.40625 
z
M 31.78125 74.21875 
Q 44.046875 74.21875 50.515625 64.515625 
Q 56.984375 54.828125 56.984375 36.375 
Q 56.984375 17.96875 50.515625 8.265625 
Q 44.046875 -1.421875 31.78125 -1.421875 
Q 19.53125 -1.421875 13.0625 8.265625 
Q 6.59375 17.96875 6.59375 36.375 
Q 6.59375 54.828125 13.0625 64.515625 
Q 19.53125 74.21875 31.78125 74.21875 
z
" id="DejaVuSans-30"/>
      </defs>
      <g transform="translate(70.651477 322.182437)scale(0.1 -0.1)">
       <use xlink:href="#DejaVuSans-30"/>
      </g>
     </g>
    </g>
    <g id="xtick_2">
     <g id="line2d_2">
      <g>
       <use style="stroke:#000000;stroke-width:0.8;" x="121.576043" xlink:href="#mc6e3e0fbf8" y="307.584"/>
      </g>
     </g>
     <g id="text_2">
      <!-- 5 -->
      <defs>
       <path d="M 10.796875 72.90625 
L 49.515625 72.90625 
L 49.515625 64.59375 
L 19.828125 64.59375 
L 19.828125 46.734375 
Q 21.96875 47.46875 24.109375 47.828125 
Q 26.265625 48.1875 28.421875 48.1875 
Q 40.625 48.1875 47.75 41.5 
Q 54.890625 34.8125 54.890625 23.390625 
Q 54.890625 11.625 47.5625 5.09375 
Q 40.234375 -1.421875 26.90625 -1.421875 
Q 22.3125 -1.421875 17.546875 -0.640625 
Q 12.796875 0.140625 7.71875 1.703125 
L 7.71875 11.625 
Q 12.109375 9.234375 16.796875 8.0625 
Q 21.484375 6.890625 26.703125 6.890625 
Q 35.15625 6.890625 40.078125 11.328125 
Q 45.015625 15.765625 45.015625 23.390625 
Q 45.015625 31 40.078125 35.4375 
Q 35.15625 39.890625 26.703125 39.890625 
Q 22.75 39.890625 18.8125 39.015625 
Q 14.890625 38.140625 10.796875 36.28125 
z
" id="DejaVuSans-35"/>
      </defs>
      <g transform="translate(118.394793 322.182437)scale(0.1 -0.1)">
       <use xlink:href="#DejaVuSans-35"/>
      </g>
     </g>
    </g>
    <g id="xtick_3">
     <g id="line2d_3">
      <g>
       <use style="stroke:#000000;stroke-width:0.8;" x="169.319358" xlink:href="#mc6e3e0fbf8" y="307.584"/>
      </g>
     </g>
     <g id="text_3">
      <!-- 10 -->
      <defs>
       <path d="M 12.40625 8.296875 
L 28.515625 8.296875 
L 28.515625 63.921875 
L 10.984375 60.40625 
L 10.984375 69.390625 
L 28.421875 72.90625 
L 38.28125 72.90625 
L 38.28125 8.296875 
L 54.390625 8.296875 
L 54.390625 0 
L 12.40625 0 
z
" id="DejaVuSans-31"/>
      </defs>
      <g transform="translate(162.956858 322.182437)scale(0.1 -0.1)">
       <use xlink:href="#DejaVuSans-31"/>
       <use x="63.623047" xlink:href="#DejaVuSans-30"/>
      </g>
     </g>
    </g>
    <g id="xtick_4">
     <g id="line2d_4">
      <g>
       <use style="stroke:#000000;stroke-width:0.8;" x="217.062674" xlink:href="#mc6e3e0fbf8" y="307.584"/>
      </g>
     </g>
     <g id="text_4">
      <!-- 15 -->
      <g transform="translate(210.700174 322.182437)scale(0.1 -0.1)">
       <use xlink:href="#DejaVuSans-31"/>
       <use x="63.623047" xlink:href="#DejaVuSans-35"/>
      </g>
     </g>
    </g>
    <g id="xtick_5">
     <g id="line2d_5">
      <g>
       <use style="stroke:#000000;stroke-width:0.8;" x="264.805989" xlink:href="#mc6e3e0fbf8" y="307.584"/>
      </g>
     </g>
     <g id="text_5">
      <!-- 20 -->
      <defs>
       <path d="M 19.1875 8.296875 
L 53.609375 8.296875 
L 53.609375 0 
L 7.328125 0 
L 7.328125 8.296875 
Q 12.9375 14.109375 22.625 23.890625 
Q 32.328125 33.6875 34.8125 36.53125 
Q 39.546875 41.84375 41.421875 45.53125 
Q 43.3125 49.21875 43.3125 52.78125 
Q 43.3125 58.59375 39.234375 62.25 
Q 35.15625 65.921875 28.609375 65.921875 
Q 23.96875 65.921875 18.8125 64.3125 
Q 13.671875 62.703125 7.8125 59.421875 
L 7.8125 69.390625 
Q 13.765625 71.78125 18.9375 73 
Q 24.125 74.21875 28.421875 74.21875 
Q 39.75 74.21875 46.484375 68.546875 
Q 53.21875 62.890625 53.21875 53.421875 
Q 53.21875 48.921875 51.53125 44.890625 
Q 49.859375 40.875 45.40625 35.40625 
Q 44.1875 33.984375 37.640625 27.21875 
Q 31.109375 20.453125 19.1875 8.296875 
z
" id="DejaVuSans-32"/>
      </defs>
      <g transform="translate(258.443489 322.182437)scale(0.1 -0.1)">
       <use xlink:href="#DejaVuSans-32"/>
       <use x="63.623047" xlink:href="#DejaVuSans-30"/>
      </g>
     </g>
    </g>
    <g id="xtick_6">
     <g id="line2d_6">
      <g>
       <use style="stroke:#000000;stroke-width:0.8;" x="312.549305" xlink:href="#mc6e3e0fbf8" y="307.584"/>
      </g>
     </g>
     <g id="text_6">
      <!-- 25 -->
      <g transform="translate(306.186805 322.182437)scale(0.1 -0.1)">
       <use xlink:href="#DejaVuSans-32"/>
       <use x="63.623047" xlink:href="#DejaVuSans-35"/>
      </g>
     </g>
    </g>
    <g id="xtick_7">
     <g id="line2d_7">
      <g>
       <use style="stroke:#000000;stroke-width:0.8;" x="360.29262" xlink:href="#mc6e3e0fbf8" y="307.584"/>
      </g>
     </g>
     <g id="text_7">
      <!-- 30 -->
      <defs>
       <path d="M 40.578125 39.3125 
Q 47.65625 37.796875 51.625 33 
Q 55.609375 28.21875 55.609375 21.1875 
Q 55.609375 10.40625 48.1875 4.484375 
Q 40.765625 -1.421875 27.09375 -1.421875 
Q 22.515625 -1.421875 17.65625 -0.515625 
Q 12.796875 0.390625 7.625 2.203125 
L 7.625 11.71875 
Q 11.71875 9.328125 16.59375 8.109375 
Q 21.484375 6.890625 26.8125 6.890625 
Q 36.078125 6.890625 40.9375 10.546875 
Q 45.796875 14.203125 45.796875 21.1875 
Q 45.796875 27.640625 41.28125 31.265625 
Q 36.765625 34.90625 28.71875 34.90625 
L 20.21875 34.90625 
L 20.21875 43.015625 
L 29.109375 43.015625 
Q 36.375 43.015625 40.234375 45.921875 
Q 44.09375 48.828125 44.09375 54.296875 
Q 44.09375 59.90625 40.109375 62.90625 
Q 36.140625 65.921875 28.71875 65.921875 
Q 24.65625 65.921875 20.015625 65.03125 
Q 15.375 64.15625 9.8125 62.3125 
L 9.8125 71.09375 
Q 15.4375 72.65625 20.34375 73.4375 
Q 25.25 74.21875 29.59375 74.21875 
Q 40.828125 74.21875 47.359375 69.109375 
Q 53.90625 64.015625 53.90625 55.328125 
Q 53.90625 49.265625 50.4375 45.09375 
Q 46.96875 40.921875 40.578125 39.3125 
z
" id="DejaVuSans-33"/>
      </defs>
      <g transform="translate(353.93012 322.182437)scale(0.1 -0.1)">
       <use xlink:href="#DejaVuSans-33"/>
       <use x="63.623047" xlink:href="#DejaVuSans-30"/>
      </g>
     </g>
    </g>
    <g id="xtick_8">
     <g id="line2d_8">
      <g>
       <use style="stroke:#000000;stroke-width:0.8;" x="408.035936" xlink:href="#mc6e3e0fbf8" y="307.584"/>
      </g>
     </g>
     <g id="text_8">
      <!-- 35 -->
      <g transform="translate(401.673436 322.182437)scale(0.1 -0.1)">
       <use xlink:href="#DejaVuSans-33"/>
       <use x="63.623047" xlink:href="#DejaVuSans-35"/>
      </g>
     </g>
    </g>
    <g id="text_9">
     <!-- Generations -->
     <defs>
      <path d="M 59.515625 10.40625 
L 59.515625 29.984375 
L 43.40625 29.984375 
L 43.40625 38.09375 
L 69.28125 38.09375 
L 69.28125 6.78125 
Q 63.578125 2.734375 56.6875 0.65625 
Q 49.8125 -1.421875 42 -1.421875 
Q 24.90625 -1.421875 15.25 8.5625 
Q 5.609375 18.5625 5.609375 36.375 
Q 5.609375 54.25 15.25 64.234375 
Q 24.90625 74.21875 42 74.21875 
Q 49.125 74.21875 55.546875 72.453125 
Q 61.96875 70.703125 67.390625 67.28125 
L 67.390625 56.78125 
Q 61.921875 61.421875 55.765625 63.765625 
Q 49.609375 66.109375 42.828125 66.109375 
Q 29.4375 66.109375 22.71875 58.640625 
Q 16.015625 51.171875 16.015625 36.375 
Q 16.015625 21.625 22.71875 14.15625 
Q 29.4375 6.6875 42.828125 6.6875 
Q 48.046875 6.6875 52.140625 7.59375 
Q 56.25 8.5 59.515625 10.40625 
z
" id="DejaVuSans-47"/>
      <path d="M 56.203125 29.59375 
L 56.203125 25.203125 
L 14.890625 25.203125 
Q 15.484375 15.921875 20.484375 11.0625 
Q 25.484375 6.203125 34.421875 6.203125 
Q 39.59375 6.203125 44.453125 7.46875 
Q 49.3125 8.734375 54.109375 11.28125 
L 54.109375 2.78125 
Q 49.265625 0.734375 44.1875 -0.34375 
Q 39.109375 -1.421875 33.890625 -1.421875 
Q 20.796875 -1.421875 13.15625 6.1875 
Q 5.515625 13.8125 5.515625 26.8125 
Q 5.515625 40.234375 12.765625 48.109375 
Q 20.015625 56 32.328125 56 
Q 43.359375 56 49.78125 48.890625 
Q 56.203125 41.796875 56.203125 29.59375 
z
M 47.21875 32.234375 
Q 47.125 39.59375 43.09375 43.984375 
Q 39.0625 48.390625 32.421875 48.390625 
Q 24.90625 48.390625 20.390625 44.140625 
Q 15.875 39.890625 15.1875 32.171875 
z
" id="DejaVuSans-65"/>
      <path d="M 54.890625 33.015625 
L 54.890625 0 
L 45.90625 0 
L 45.90625 32.71875 
Q 45.90625 40.484375 42.875 44.328125 
Q 39.84375 48.1875 33.796875 48.1875 
Q 26.515625 48.1875 22.3125 43.546875 
Q 18.109375 38.921875 18.109375 30.90625 
L 18.109375 0 
L 9.078125 0 
L 9.078125 54.6875 
L 18.109375 54.6875 
L 18.109375 46.1875 
Q 21.34375 51.125 25.703125 53.5625 
Q 30.078125 56 35.796875 56 
Q 45.21875 56 50.046875 50.171875 
Q 54.890625 44.34375 54.890625 33.015625 
z
" id="DejaVuSans-6e"/>
      <path d="M 41.109375 46.296875 
Q 39.59375 47.171875 37.8125 47.578125 
Q 36.03125 48 33.890625 48 
Q 26.265625 48 22.1875 43.046875 
Q 18.109375 38.09375 18.109375 28.8125 
L 18.109375 0 
L 9.078125 0 
L 9.078125 54.6875 
L 18.109375 54.6875 
L 18.109375 46.1875 
Q 20.953125 51.171875 25.484375 53.578125 
Q 30.03125 56 36.53125 56 
Q 37.453125 56 38.578125 55.875 
Q 39.703125 55.765625 41.0625 55.515625 
z
" id="DejaVuSans-72"/>
      <path d="M 34.28125 27.484375 
Q 23.390625 27.484375 19.1875 25 
Q 14.984375 22.515625 14.984375 16.5 
Q 14.984375 11.71875 18.140625 8.90625 
Q 21.296875 6.109375 26.703125 6.109375 
Q 34.1875 6.109375 38.703125 11.40625 
Q 43.21875 16.703125 43.21875 25.484375 
L 43.21875 27.484375 
z
M 52.203125 31.203125 
L 52.203125 0 
L 43.21875 0 
L 43.21875 8.296875 
Q 40.140625 3.328125 35.546875 0.953125 
Q 30.953125 -1.421875 24.3125 -1.421875 
Q 15.921875 -1.421875 10.953125 3.296875 
Q 6 8.015625 6 15.921875 
Q 6 25.140625 12.171875 29.828125 
Q 18.359375 34.515625 30.609375 34.515625 
L 43.21875 34.515625 
L 43.21875 35.40625 
Q 43.21875 41.609375 39.140625 45 
Q 35.0625 48.390625 27.6875 48.390625 
Q 23 48.390625 18.546875 47.265625 
Q 14.109375 46.140625 10.015625 43.890625 
L 10.015625 52.203125 
Q 14.9375 54.109375 19.578125 55.046875 
Q 24.21875 56 28.609375 56 
Q 40.484375 56 46.34375 49.84375 
Q 52.203125 43.703125 52.203125 31.203125 
z
" id="DejaVuSans-61"/>
      <path d="M 18.3125 70.21875 
L 18.3125 54.6875 
L 36.8125 54.6875 
L 36.8125 47.703125 
L 18.3125 47.703125 
L 18.3125 18.015625 
Q 18.3125 11.328125 20.140625 9.421875 
Q 21.96875 7.515625 27.59375 7.515625 
L 36.8125 7.515625 
L 36.8125 0 
L 27.59375 0 
Q 17.1875 0 13.234375 3.875 
Q 9.28125 7.765625 9.28125 18.015625 
L 9.28125 47.703125 
L 2.6875 47.703125 
L 2.6875 54.6875 
L 9.28125 54.6875 
L 9.28125 70.21875 
z
" id="DejaVuSans-74"/>
      <path d="M 9.421875 54.6875 
L 18.40625 54.6875 
L 18.40625 0 
L 9.421875 0 
z
M 9.421875 75.984375 
L 18.40625 75.984375 
L 18.40625 64.59375 
L 9.421875 64.59375 
z
" id="DejaVuSans-69"/>
      <path d="M 30.609375 48.390625 
Q 23.390625 48.390625 19.1875 42.75 
Q 14.984375 37.109375 14.984375 27.296875 
Q 14.984375 17.484375 19.15625 11.84375 
Q 23.34375 6.203125 30.609375 6.203125 
Q 37.796875 6.203125 41.984375 11.859375 
Q 46.1875 17.53125 46.1875 27.296875 
Q 46.1875 37.015625 41.984375 42.703125 
Q 37.796875 48.390625 30.609375 48.390625 
z
M 30.609375 56 
Q 42.328125 56 49.015625 48.375 
Q 55.71875 40.765625 55.71875 27.296875 
Q 55.71875 13.875 49.015625 6.21875 
Q 42.328125 -1.421875 30.609375 -1.421875 
Q 18.84375 -1.421875 12.171875 6.21875 
Q 5.515625 13.875 5.515625 27.296875 
Q 5.515625 40.765625 12.171875 48.375 
Q 18.84375 56 30.609375 56 
z
" id="DejaVuSans-6f"/>
      <path d="M 44.28125 53.078125 
L 44.28125 44.578125 
Q 40.484375 46.53125 36.375 47.5 
Q 32.28125 48.484375 27.875 48.484375 
Q 21.1875 48.484375 17.84375 46.4375 
Q 14.5 44.390625 14.5 40.28125 
Q 14.5 37.15625 16.890625 35.375 
Q 19.28125 33.59375 26.515625 31.984375 
L 29.59375 31.296875 
Q 39.15625 29.25 43.1875 25.515625 
Q 47.21875 21.78125 47.21875 15.09375 
Q 47.21875 7.46875 41.1875 3.015625 
Q 35.15625 -1.421875 24.609375 -1.421875 
Q 20.21875 -1.421875 15.453125 -0.5625 
Q 10.6875 0.296875 5.421875 2 
L 5.421875 11.28125 
Q 10.40625 8.6875 15.234375 7.390625 
Q 20.0625 6.109375 24.8125 6.109375 
Q 31.15625 6.109375 34.5625 8.28125 
Q 37.984375 10.453125 37.984375 14.40625 
Q 37.984375 18.0625 35.515625 20.015625 
Q 33.0625 21.96875 24.703125 23.78125 
L 21.578125 24.515625 
Q 13.234375 26.265625 9.515625 29.90625 
Q 5.8125 33.546875 5.8125 39.890625 
Q 5.8125 47.609375 11.28125 51.796875 
Q 16.75 56 26.8125 56 
Q 31.78125 56 36.171875 55.265625 
Q 40.578125 54.546875 44.28125 53.078125 
z
" id="DejaVuSans-73"/>
     </defs>
     <g transform="translate(205.662344 335.860562)scale(0.1 -0.1)">
      <use xlink:href="#DejaVuSans-47"/>
      <use x="77.490234" xlink:href="#DejaVuSans-65"/>
      <use x="139.013672" xlink:href="#DejaVuSans-6e"/>
      <use x="202.392578" xlink:href="#DejaVuSans-65"/>
      <use x="263.916016" xlink:href="#DejaVuSans-72"/>
      <use x="305.029297" xlink:href="#DejaVuSans-61"/>
      <use x="366.308594" xlink:href="#DejaVuSans-74"/>
      <use x="405.517578" xlink:href="#DejaVuSans-69"/>
      <use x="433.300781" xlink:href="#DejaVuSans-6f"/>
      <use x="494.482422" xlink:href="#DejaVuSans-6e"/>
      <use x="557.861328" xlink:href="#DejaVuSans-73"/>
     </g>
    </g>
   </g>
   <g id="matplotlib.axis_2">
    <g id="ytick_1">
     <g id="line2d_9">
      <defs>
       <path d="M 0 0 
L -3.5 0 
" id="md94a5a11a6" style="stroke:#000000;stroke-width:0.8;"/>
      </defs>
      <g>
       <use style="stroke:#000000;stroke-width:0.8;" x="57.6" xlink:href="#md94a5a11a6" y="307.584"/>
      </g>
     </g>
     <g id="text_10">
      <!-- 0 -->
      <g transform="translate(44.2375 311.383219)scale(0.1 -0.1)">
       <use xlink:href="#DejaVuSans-30"/>
      </g>
     </g>
    </g>
    <g id="ytick_2">
     <g id="line2d_10">
      <g>
       <use style="stroke:#000000;stroke-width:0.8;" x="57.6" xlink:href="#md94a5a11a6" y="257.694236"/>
      </g>
     </g>
     <g id="text_11">
      <!-- 50 -->
      <g transform="translate(37.875 261.493455)scale(0.1 -0.1)">
       <use xlink:href="#DejaVuSans-35"/>
       <use x="63.623047" xlink:href="#DejaVuSans-30"/>
      </g>
     </g>
    </g>
    <g id="ytick_3">
     <g id="line2d_11">
      <g>
       <use style="stroke:#000000;stroke-width:0.8;" x="57.6" xlink:href="#md94a5a11a6" y="207.804472"/>
      </g>
     </g>
     <g id="text_12">
      <!-- 100 -->
      <g transform="translate(31.5125 211.603691)scale(0.1 -0.1)">
       <use xlink:href="#DejaVuSans-31"/>
       <use x="63.623047" xlink:href="#DejaVuSans-30"/>
       <use x="127.246094" xlink:href="#DejaVuSans-30"/>
      </g>
     </g>
    </g>
    <g id="ytick_4">
     <g id="line2d_12">
      <g>
       <use style="stroke:#000000;stroke-width:0.8;" x="57.6" xlink:href="#md94a5a11a6" y="157.914709"/>
      </g>
     </g>
     <g id="text_13">
      <!-- 150 -->
      <g transform="translate(31.5125 161.713927)scale(0.1 -0.1)">
       <use xlink:href="#DejaVuSans-31"/>
       <use x="63.623047" xlink:href="#DejaVuSans-35"/>
       <use x="127.246094" xlink:href="#DejaVuSans-30"/>
      </g>
     </g>
    </g>
    <g id="ytick_5">
     <g id="line2d_13">
      <g>
       <use style="stroke:#000000;stroke-width:0.8;" x="57.6" xlink:href="#md94a5a11a6" y="108.024945"/>
      </g>
     </g>
     <g id="text_14">
      <!-- 200 -->
      <g transform="translate(31.5125 111.824164)scale(0.1 -0.1)">
       <use xlink:href="#DejaVuSans-32"/>
       <use x="63.623047" xlink:href="#DejaVuSans-30"/>
       <use x="127.246094" xlink:href="#DejaVuSans-30"/>
      </g>
     </g>
    </g>
    <g id="ytick_6">
     <g id="line2d_14">
      <g>
       <use style="stroke:#000000;stroke-width:0.8;" x="57.6" xlink:href="#md94a5a11a6" y="58.135181"/>
      </g>
     </g>
     <g id="text_15">
      <!-- 250 -->
      <g transform="translate(31.5125 61.9344)scale(0.1 -0.1)">
       <use xlink:href="#DejaVuSans-32"/>
       <use x="63.623047" xlink:href="#DejaVuSans-35"/>
       <use x="127.246094" xlink:href="#DejaVuSans-30"/>
      </g>
     </g>
    </g>
    <g id="text_16">
     <!-- Size per Species -->
     <defs>
      <path d="M 53.515625 70.515625 
L 53.515625 60.890625 
Q 47.90625 63.578125 42.921875 64.890625 
Q 37.9375 66.21875 33.296875 66.21875 
Q 25.25 66.21875 20.875 63.09375 
Q 16.5 59.96875 16.5 54.203125 
Q 16.5 49.359375 19.40625 46.890625 
Q 22.3125 44.4375 30.421875 42.921875 
L 36.375 41.703125 
Q 47.40625 39.59375 52.65625 34.296875 
Q 57.90625 29 57.90625 20.125 
Q 57.90625 9.515625 50.796875 4.046875 
Q 43.703125 -1.421875 29.984375 -1.421875 
Q 24.8125 -1.421875 18.96875 -0.25 
Q 13.140625 0.921875 6.890625 3.21875 
L 6.890625 13.375 
Q 12.890625 10.015625 18.65625 8.296875 
Q 24.421875 6.59375 29.984375 6.59375 
Q 38.421875 6.59375 43.015625 9.90625 
Q 47.609375 13.234375 47.609375 19.390625 
Q 47.609375 24.75 44.3125 27.78125 
Q 41.015625 30.8125 33.5 32.328125 
L 27.484375 33.5 
Q 16.453125 35.6875 11.515625 40.375 
Q 6.59375 45.0625 6.59375 53.421875 
Q 6.59375 63.09375 13.40625 68.65625 
Q 20.21875 74.21875 32.171875 74.21875 
Q 37.3125 74.21875 42.625 73.28125 
Q 47.953125 72.359375 53.515625 70.515625 
z
" id="DejaVuSans-53"/>
      <path d="M 5.515625 54.6875 
L 48.1875 54.6875 
L 48.1875 46.484375 
L 14.40625 7.171875 
L 48.1875 7.171875 
L 48.1875 0 
L 4.296875 0 
L 4.296875 8.203125 
L 38.09375 47.515625 
L 5.515625 47.515625 
z
" id="DejaVuSans-7a"/>
      <path id="DejaVuSans-20"/>
      <path d="M 18.109375 8.203125 
L 18.109375 -20.796875 
L 9.078125 -20.796875 
L 9.078125 54.6875 
L 18.109375 54.6875 
L 18.109375 46.390625 
Q 20.953125 51.265625 25.265625 53.625 
Q 29.59375 56 35.59375 56 
Q 45.5625 56 51.78125 48.09375 
Q 58.015625 40.1875 58.015625 27.296875 
Q 58.015625 14.40625 51.78125 6.484375 
Q 45.5625 -1.421875 35.59375 -1.421875 
Q 29.59375 -1.421875 25.265625 0.953125 
Q 20.953125 3.328125 18.109375 8.203125 
z
M 48.6875 27.296875 
Q 48.6875 37.203125 44.609375 42.84375 
Q 40.53125 48.484375 33.40625 48.484375 
Q 26.265625 48.484375 22.1875 42.84375 
Q 18.109375 37.203125 18.109375 27.296875 
Q 18.109375 17.390625 22.1875 11.75 
Q 26.265625 6.109375 33.40625 6.109375 
Q 40.53125 6.109375 44.609375 11.75 
Q 48.6875 17.390625 48.6875 27.296875 
z
" id="DejaVuSans-70"/>
      <path d="M 48.78125 52.59375 
L 48.78125 44.1875 
Q 44.96875 46.296875 41.140625 47.34375 
Q 37.3125 48.390625 33.40625 48.390625 
Q 24.65625 48.390625 19.8125 42.84375 
Q 14.984375 37.3125 14.984375 27.296875 
Q 14.984375 17.28125 19.8125 11.734375 
Q 24.65625 6.203125 33.40625 6.203125 
Q 37.3125 6.203125 41.140625 7.25 
Q 44.96875 8.296875 48.78125 10.40625 
L 48.78125 2.09375 
Q 45.015625 0.34375 40.984375 -0.53125 
Q 36.96875 -1.421875 32.421875 -1.421875 
Q 20.0625 -1.421875 12.78125 6.34375 
Q 5.515625 14.109375 5.515625 27.296875 
Q 5.515625 40.671875 12.859375 48.328125 
Q 20.21875 56 33.015625 56 
Q 37.15625 56 41.109375 55.140625 
Q 45.0625 54.296875 48.78125 52.59375 
z
" id="DejaVuSans-63"/>
     </defs>
     <g transform="translate(25.432812 215.520969)rotate(-90)scale(0.1 -0.1)">
      <use xlink:href="#DejaVuSans-53"/>
      <use x="63.476562" xlink:href="#DejaVuSans-69"/>
      <use x="91.259766" xlink:href="#DejaVuSans-7a"/>
      <use x="143.75" xlink:href="#DejaVuSans-65"/>
      <use x="205.273438" xlink:href="#DejaVuSans-20"/>
      <use x="237.060547" xlink:href="#DejaVuSans-70"/>
      <use x="300.537109" xlink:href="#DejaVuSans-65"/>
      <use x="362.060547" xlink:href="#DejaVuSans-72"/>
      <use x="403.173828" xlink:href="#DejaVuSans-20"/>
      <use x="434.960938" xlink:href="#DejaVuSans-53"/>
      <use x="498.4375" xlink:href="#DejaVuSans-70"/>
      <use x="561.914062" xlink:href="#DejaVuSans-65"/>
      <use x="623.4375" xlink:href="#DejaVuSans-63"/>
      <use x="678.417969" xlink:href="#DejaVuSans-69"/>
      <use x="706.201172" xlink:href="#DejaVuSans-65"/>
      <use x="767.724609" xlink:href="#DejaVuSans-73"/>
     </g>
    </g>
   </g>
   <g id="patch_3">
    <path d="M 57.6 307.584 
L 57.6 41.472 
" style="fill:none;stroke:#000000;stroke-linecap:square;stroke-linejoin:miter;stroke-width:0.8;"/>
   </g>
   <g id="patch_4">
    <path d="M 414.72 307.584 
L 414.72 41.472 
" style="fill:none;stroke:#000000;stroke-linecap:square;stroke-linejoin:miter;stroke-width:0.8;"/>
   </g>
   <g id="patch_5">
    <path d="M 57.6 307.584 
L 414.72 307.584 
" style="fill:none;stroke:#000000;stroke-linecap:square;stroke-linejoin:miter;stroke-width:0.8;"/>
   </g>
   <g id="patch_6">
    <path d="M 57.6 41.472 
L 414.72 41.472 
" style="fill:none;stroke:#000000;stroke-linecap:square;stroke-linejoin:miter;stroke-width:0.8;"/>
   </g>
   <g id="text_17">
    <!-- Speciation -->
    <g transform="translate(204.714375 35.472)scale(0.12 -0.12)">
     <use xlink:href="#DejaVuSans-53"/>
     <use x="63.476562" xlink:href="#DejaVuSans-70"/>
     <use x="126.953125" xlink:href="#DejaVuSans-65"/>
     <use x="188.476562" xlink:href="#DejaVuSans-63"/>
     <use x="243.457031" xlink:href="#DejaVuSans-69"/>
     <use x="271.240234" xlink:href="#DejaVuSans-61"/>
     <use x="332.519531" xlink:href="#DejaVuSans-74"/>
     <use x="371.728516" xlink:href="#DejaVuSans-69"/>
     <use x="399.511719" xlink:href="#DejaVuSans-6f"/>
     <use x="460.693359" xlink:href="#DejaVuSans-6e"/>
    </g>
   </g>
  </g>
 </g>
 <defs>
  <clipPath id="p0cba6cbda8">
   <rect height="266.112" width="357.12" x="57.6" y="41.472"/>
  </clipPath>
 </defs>
</svg>
